<?xml version="1.0" encoding="UTF-8"?>
<svg width="50px" height="55px" viewBox="0 0 50 55" version="1.1" xmlns="http://www.w3.org/2000/svg" xmlns:xlink="http://www.w3.org/1999/xlink" xmlns:sketch="http://www.bohemiancoding.com/sketch/ns">
    <title>Slice 1</title>
    <description>Created with Sketch (http://www.bohemiancoding.com/sketch)</description>
    <defs></defs>
    <g id="Page-1" stroke="none" stroke-width="1" fill="none" fill-rule="evenodd" sketch:type="MSPage">
        <g id="app" sketch:type="MSLayerGroup" transform="translate(-14.000000, -6.000000)" fill="#FFFFFF">
            <g id="Page-1" sketch:type="MSShapeGroup">
                <g id="Phoneicon" transform="translate(37.206801, 35.349265) rotate(12.000000) translate(-37.206801, -35.349265) translate(5.206801, 5.849265)">
                    <path d="M43.2230931,57.2887703 C41.6790354,58.5382138 39.877635,59.5265824 37.9843254,60.1419785 C35.1903163,60.7200816 32.2860157,60.5895426 29.5103899,59.7876603 C27.7457545,59.2468545 26.293603,58.0347052 25.4664294,56.3936448 C16.9373475,39.7965356 16.9005853,20.0478387 25.3193762,3.39478597 C26.293603,1.51129398 28.0030958,0.0753630729 30.0250753,-0.465441773 C31.5323708,-0.857058409 33.0396634,-1.13678503 34.5285763,-1.17408175 C38.021089,-1.23002723 41.3665472,-0.148418432 44.19732,1.82831732 C44.5465704,2.05209709 44.7671509,2.49965995 44.7671509,2.94722296 C44.7671509,3.17100447 44.6752417,3.43208207 44.5465704,3.61856574 L37.4880218,15.5722144 C37.1387699,16.1876133 36.34836,16.4113954 35.7233836,16.0570729 L31.9367667,13.9497997 C31.7161876,13.8192622 31.4956071,13.7819635 31.2750266,13.7819635 C30.5213817,13.7819635 29.9515494,14.3973624 29.9515494,15.1619489 L29.9515494,43.8245986 C29.9515494,44.5891837 30.5213817,45.2045826 31.2750266,45.2045826 C31.5323708,45.2045826 31.7897135,45.111338 32.010294,44.9808005 L34.1425622,43.5075734 C34.7123945,43.1532538 35.4108968,43.246497 35.8520563,43.6940582 L45.0796391,53.4471921 C45.3002181,53.7082685 45.4288909,54.0252923 45.4288909,54.3796133 C45.4288909,54.6966356 45.3002181,55.0136594 45.1347845,55.2747373 C44.5098082,55.9647293 43.8848332,56.6174255 43.2230931,57.2887703 L43.2230931,57.2887703 Z" id="path4" transform="translate(32.037264, 29.823851) rotate(-52.000000) translate(-32.037264, -29.823851) "></path>
                </g>
            </g>
        </g>
    </g>
</svg>