<?xml version="1.0" encoding="UTF-8"?>
<svg width="16px" height="16px" viewBox="0 0 16 16" version="1.1" xmlns="http://www.w3.org/2000/svg" xmlns:xlink="http://www.w3.org/1999/xlink" xmlns:sketch="http://www.bohemiancoding.com/sketch/ns">
    <title>Phoneicon</title>
    <description>Created with Sketch (http://www.bohemiancoding.com/sketch)</description>
    <defs></defs>
    <g id="Page-1" stroke="none" stroke-width="1" fill="none" fill-rule="evenodd" sketch:type="MSPage">
        <g id="Phoneicon" sketch:type="MSLayerGroup" transform="translate(7.206801, 8.349265) rotate(12.000000) translate(-7.206801, -8.349265) translate(-2.793199, -1.150735)" fill="#000000">
            <path d="M13.4361259,18.4265878 C12.9536078,18.828951 12.3906702,19.1472392 11.799011,19.3454176 C10.9258831,19.5315864 10.0182892,19.4895484 9.15090611,19.2313152 C8.59945756,19.0571573 8.14566023,18.6668042 7.88716847,18.1383271 C5.22183039,12.7934953 5.21034219,6.43374547 7.84121435,1.070898 C8.14566023,0.464349733 8.67987671,0.0019313048 9.31174531,-0.172226188 C9.78277515,-0.29834002 10.2538041,-0.388421472 10.7190894,-0.40043228 C11.8104996,-0.418448621 12.8559553,-0.0701339256 13.7405718,0.566441995 C13.8497125,0.638506667 13.9186439,0.782637081 13.9186439,0.926767542 C13.9186439,0.998832772 13.8899223,1.08290861 13.8497125,1.14296267 L11.6439161,4.99244273 C11.5347749,5.19062204 11.2877718,5.26268746 11.0924666,5.14858361 L9.90914887,4.4699702 C9.84021791,4.4279327 9.77128651,4.41592126 9.70235511,4.41592126 C9.46684108,4.41592126 9.28876847,4.61410057 9.28876847,4.86032334 L9.28876847,14.0906682 C9.28876847,14.3368905 9.46684108,14.5350698 9.70235511,14.5350698 C9.78277515,14.5350698 9.86319475,14.5050419 9.93212615,14.4630044 L10.59846,13.9885753 C10.7765326,13.8744724 10.9948145,13.9044998 11.1326769,14.0486297 L14.0162965,17.1894694 C14.0852274,17.2735449 14.1254377,17.3756373 14.1254377,17.4897407 C14.1254377,17.5918326 14.0852274,17.693925 14.0335295,17.778001 C13.8382243,18.0002018 13.6429197,18.2103921 13.4361259,18.4265878 Z" id="path4" sketch:type="MSShapeGroup" transform="translate(9.998321, 9.518020) rotate(-52.000000) translate(-9.998321, -9.518020) "></path>
        </g>
    </g>
</svg>